<?xml version="1.0" standalone="no"?>
<!DOCTYPE svg PUBLIC "-//W3C//DTD SVG 20010904//EN"
 "http://www.w3.org/TR/2001/REC-SVG-20010904/DTD/svg10.dtd">
<svg version="1.0" xmlns="http://www.w3.org/2000/svg"
 width="700.000000pt" height="700.000000pt" viewBox="0 0 700.000000 700.000000"
 preserveAspectRatio="xMidYMid meet">
<metadata>
Created by potrace 1.14, written by Peter Selinger 2001-2017
</metadata>
<g transform="translate(0.000000,700.000000) scale(0.100000,-0.100000)"
fill="#000000" stroke="none">
<path d="M3115 6510 c-621 -439 -614 -435 -645 -461 -14 -11 -20 -23 -15 -25
6 -2 186 -129 400 -281 379 -268 483 -342 592 -418 l52 -37 138 98 c76 53 161
113 188 132 28 20 128 91 223 159 95 68 177 123 182 123 4 0 10 4 12 8 2 5 72
57 157 117 l154 109 -33 25 c-18 14 -66 49 -105 76 -82 56 -231 162 -305 215
-26 19 -56 41 -67 48 -10 7 -135 96 -278 197 -143 101 -262 184 -265 184 -3 0
-176 -121 -385 -269z"/>
<path d="M2304 5934 c-234 -158 -1014 -718 -1007 -724 7 -7 704 -500 942 -667
l103 -73 46 33 c26 17 51 36 57 40 23 18 736 522 813 574 45 31 87 62 93 70 6
7 18 13 25 13 26 0 14 25 -24 50 -20 14 -41 29 -47 33 -5 4 -57 41 -115 82
-58 40 -134 94 -170 120 -36 25 -96 68 -135 95 -38 27 -78 55 -87 62 -24 17
-50 36 -266 189 -100 71 -184 129 -186 129 -2 0 -21 -12 -42 -26z"/>
<path d="M4595 5917 c-33 -24 -89 -64 -125 -89 -90 -63 -787 -556 -831 -588
l-36 -26 360 -255 c198 -139 436 -307 528 -372 l169 -118 32 24 c18 14 58 42
89 63 31 22 253 179 493 349 l437 310 -23 19 c-13 10 -129 93 -258 184 -129
91 -267 188 -307 216 -40 28 -114 81 -165 117 -226 159 -298 209 -301 209 -1
0 -30 -19 -62 -43z"/>
<path d="M3050 4824 c-245 -173 -477 -338 -517 -365 -39 -27 -74 -53 -77 -57
-3 -5 68 -60 157 -123 89 -63 167 -117 172 -122 6 -4 168 -120 362 -256 l352
-249 38 26 c21 14 200 140 398 280 198 140 383 271 410 290 140 98 205 146
205 151 0 3 -91 70 -203 148 -111 78 -345 244 -520 368 -176 124 -322 225
-325 225 -4 0 -207 -142 -452 -316z"/>
<path d="M1249 5098 c-1 -1 -2 -231 -3 -509 l-1 -506 70 -50 c38 -27 153 -108
255 -179 399 -281 627 -441 670 -471 l46 -31 -1 508 0 509 -175 124 c-96 68
-308 217 -470 332 -162 114 -316 223 -342 242 -27 19 -49 33 -49 31z"/>
<path d="M5673 5047 c-39 -29 -80 -58 -90 -65 -10 -7 -108 -76 -218 -154 -110
-78 -299 -211 -420 -296 -121 -85 -222 -157 -225 -159 -11 -9 -6 -1022 5
-1015 5 3 30 20 55 37 25 18 92 65 150 105 58 40 128 90 155 110 28 20 187
133 355 250 168 118 307 217 310 221 7 9 7 1006 0 1012 -3 3 -37 -18 -77 -46z"/>
<path d="M2401 3775 l0 -504 23 -18 c13 -10 32 -24 42 -31 26 -17 355 -248
379 -266 122 -88 579 -407 587 -409 7 -1 10 164 10 488 0 270 -1 497 -1 505
-1 8 -16 25 -34 37 -17 12 -59 41 -93 65 -86 61 -232 163 -324 228 -43 30
-184 130 -314 222 -129 92 -244 172 -255 178 -20 10 -20 4 -20 -495z"/>
<path d="M4220 4020 c-492 -350 -639 -453 -652 -461 -8 -5 -11 -152 -11 -509
0 -275 3 -503 5 -505 3 -4 216 142 408 280 56 40 347 245 390 275 8 5 62 44
120 85 58 41 108 75 113 75 4 0 7 230 7 510 0 281 -3 510 -7 509 -5 0 -172
-117 -373 -259z"/>
<path d="M1245 2856 l0 -1083 133 -94 c73 -52 206 -146 295 -209 89 -63 223
-158 297 -210 126 -89 407 -288 809 -572 95 -68 257 -182 360 -255 102 -72
212 -150 244 -172 32 -23 57 -35 58 -28 3 51 1 2158 -2 2161 -7 5 -509 360
-532 376 -13 8 -105 74 -206 145 -199 141 -223 158 -446 315 -83 57 -154 108
-160 113 -5 5 -100 72 -210 149 -110 78 -297 210 -416 295 -119 84 -218 153
-220 153 -2 0 -4 -488 -4 -1084z"/>
<path d="M5710 3913 c-19 -13 -43 -30 -52 -38 -9 -7 -29 -22 -45 -32 -15 -10
-32 -22 -38 -26 -5 -5 -100 -72 -210 -149 -110 -78 -369 -261 -575 -406 -206
-146 -398 -281 -426 -301 -51 -36 -217 -153 -407 -288 -56 -40 -109 -77 -117
-83 -88 -60 -231 -163 -254 -182 l-29 -25 1 -1069 c0 -588 1 -1075 1 -1082 1
-7 36 12 79 43 239 170 326 232 347 245 22 14 936 660 973 688 9 7 91 65 182
129 91 64 191 135 222 157 31 23 132 95 225 160 l168 119 0 1078 c0 592 -2
1079 -5 1082 -3 2 -21 -7 -40 -20z"/>
</g>
</svg>
