<?xml version="1.0" encoding="UTF-8" standalone="no"?>
<!-- Created with Inkscape (http://www.inkscape.org/) -->

<svg
   width="79.375mm"
   height="91.654358mm"
   viewBox="0 0 79.375 91.654358"
   version="1.1"
   id="svg1849"
   xmlns="http://www.w3.org/2000/svg"
   xmlns:svg="http://www.w3.org/2000/svg">
  <defs
     id="defs1846" />
  <g
     id="layer1"
     transform="translate(-92.677978,116.90645)">
    <g
       id="g10116"
       transform="matrix(0.17712907,0,0,0.17712907,-18.787921,-291.85486)">
      <path
         style="opacity:1;fill:#000000;fill-opacity:1;stroke:none;stroke-width:66.5911;stroke-miterlimit:4;stroke-dasharray:none;stroke-opacity:1"
         id="path59928"
         transform="matrix(0.21852886,0,0,0.21852886,537.28703,1127.9297)"
         d="m 2437.4621,1114.4069 -991.1328,572.2308 -991.13273,-572.2308 0,-1144.461531 991.13283,-572.230769 991.1327,572.230778 z" />
      <ellipse
         style="fill:#0085ca;fill-opacity:1;stroke:none;stroke-width:1.04389;stroke-miterlimit:4;stroke-dasharray:none;stroke-opacity:1"
         id="ellipse59930"
         cx="853.35168"
         cy="1137.3051"
         rx="92.604164"
         ry="23.185968" />
      <path
         style="fill:#0085ca;fill-opacity:1;stroke:none;stroke-width:0.965802;stroke-miterlimit:4;stroke-dasharray:none;stroke-opacity:1"
         d="m 760.74763,1148.9345 v 45.6504 h 185.2082 v -45.6504 c -1.265,1.0313 -2.6466,1.9664 -4.0798,2.8148 -5.5495,3.285 -12.7745,5.8682 -21.5185,8.0575 -17.4877,4.3785 -41.0084,6.9787 -67.0049,6.9787 -25.9965,0 -49.5189,-2.6002 -67.0067,-6.9787 -8.7439,-2.1893 -15.969,-4.7725 -21.5185,-8.0575 -1.4331,-0.8484 -2.8148,-1.7835 -4.0798,-2.8148 z"
         id="path59932" />
      <ellipse
         style="fill:#0085ca;fill-opacity:1;stroke:none;stroke-width:1.04389;stroke-miterlimit:4;stroke-dasharray:none;stroke-opacity:1"
         id="ellipse59934"
         cx="853.35168"
         cy="1194.585"
         rx="92.604164"
         ry="23.185968" />
      <ellipse
         style="fill:#0085ca;fill-opacity:1;stroke:none;stroke-width:1.04389;stroke-miterlimit:4;stroke-dasharray:none;stroke-opacity:1"
         id="ellipse59936"
         cx="853.35168"
         cy="1217.7709"
         rx="92.604164"
         ry="23.185968" />
      <path
         style="fill:#0085ca;fill-opacity:1;stroke:none;stroke-width:0.965802;stroke-miterlimit:4;stroke-dasharray:none;stroke-opacity:1"
         d="m 760.74763,1229.4003 v 45.6504 h 185.2082 v -45.6504 c -1.265,1.0312 -2.6466,1.9663 -4.0798,2.8147 -5.5495,3.2851 -12.7745,5.8683 -21.5185,8.0575 -17.4877,4.3786 -41.0084,6.9788 -67.0049,6.9788 -25.9965,0 -49.5189,-2.6002 -67.0067,-6.9788 -8.7439,-2.1892 -15.969,-4.7724 -21.5185,-8.0575 -1.4331,-0.8484 -2.8148,-1.7835 -4.0798,-2.8147 z"
         id="path59938" />
      <ellipse
         style="fill:#0085ca;fill-opacity:1;stroke:none;stroke-width:1.04389;stroke-miterlimit:4;stroke-dasharray:none;stroke-opacity:1"
         id="ellipse59940"
         cx="853.35168"
         cy="1275.0507"
         rx="92.604164"
         ry="23.185968" />
      <ellipse
         style="fill:#0085ca;fill-opacity:1;stroke:none;stroke-width:1.04389;stroke-miterlimit:4;stroke-dasharray:none;stroke-opacity:1"
         id="ellipse59942"
         cx="853.35168"
         cy="1298.2366"
         rx="92.604164"
         ry="23.185968" />
      <path
         style="fill:#0085ca;fill-opacity:1;stroke:none;stroke-width:0.965802;stroke-miterlimit:4;stroke-dasharray:none;stroke-opacity:1"
         d="m 760.74763,1309.8661 v 45.6504 h 185.2082 v -45.6504 c -1.265,1.0312 -2.6466,1.9663 -4.0798,2.8147 -5.5495,3.2851 -12.7745,5.8683 -21.5185,8.0575 -17.4877,4.3786 -41.0084,6.9788 -67.0049,6.9788 -25.9965,0 -49.5189,-2.6002 -67.0067,-6.9788 -8.7439,-2.1892 -15.969,-4.7724 -21.5185,-8.0575 -1.4331,-0.8484 -2.8148,-1.7835 -4.0798,-2.8147 z"
         id="path59944" />
      <ellipse
         style="fill:#0085ca;fill-opacity:1;stroke:none;stroke-width:1.04389;stroke-miterlimit:4;stroke-dasharray:none;stroke-opacity:1"
         id="ellipse59946"
         cx="853.35168"
         cy="1355.5165"
         rx="92.604164"
         ry="23.185968" />
      <path
         style="fill:none;stroke:#0085ca;stroke-width:5.29167;stroke-linecap:butt;stroke-linejoin:miter;stroke-miterlimit:4;stroke-dasharray:none;stroke-opacity:1"
         d="m 934.73355,1258.3149 h 23.3938 l 9.34425,-12.9881 22.03704,17.3913"
         id="path85665" />
      <circle
         style="fill:none;fill-opacity:0.999;stroke:#0085ca;stroke-width:5.29167;stroke-miterlimit:4;stroke-dasharray:none;stroke-opacity:1"
         id="circle85667"
         cx="-993.10693"
         cy="1266.6232"
         r="5.9026484"
         transform="scale(-1,1)" />
      <path
         style="fill:none;stroke:#0085ca;stroke-width:5.29167;stroke-linecap:butt;stroke-linejoin:miter;stroke-miterlimit:4;stroke-dasharray:none;stroke-opacity:1"
         d="m 938.92986,1170.3127 19.47375,0.1055 13.28801,-27.8755"
         id="path85677" />
      <circle
         style="fill:none;fill-opacity:0.999;stroke:#0085ca;stroke-width:5.29167;stroke-miterlimit:4;stroke-dasharray:none;stroke-opacity:1"
         id="circle85679"
         cx="-973.72424"
         cy="-1138.0923"
         r="5.9026484"
         transform="scale(-1)" />
      <path
         style="fill:none;stroke:#0085ca;stroke-width:5.29167;stroke-linecap:butt;stroke-linejoin:miter;stroke-miterlimit:4;stroke-dasharray:none;stroke-opacity:1"
         d="m 938.92992,1329.1911 19.47375,-0.1054 13.28801,27.8755"
         id="path85774" />
      <circle
         style="fill:none;fill-opacity:0.999;stroke:#0085ca;stroke-width:5.29167;stroke-miterlimit:4;stroke-dasharray:none;stroke-opacity:1"
         id="circle85776"
         cx="-973.72437"
         cy="1361.4116"
         r="5.9026484"
         transform="scale(-1,1)" />
      <path
         style="fill:none;stroke:#0085ca;stroke-width:5.29167;stroke-linecap:butt;stroke-linejoin:miter;stroke-miterlimit:4;stroke-dasharray:none;stroke-opacity:1"
         d="m 773.23934,1257.0312 h -23.3938 l -9.34425,12.9882 -22.03704,-17.3913"
         id="path85791" />
      <circle
         style="fill:none;fill-opacity:0.999;stroke:#0085ca;stroke-width:5.29167;stroke-miterlimit:4;stroke-dasharray:none;stroke-opacity:1"
         id="circle85793"
         cx="714.86597"
         cy="-1248.7229"
         r="5.9026484"
         transform="scale(1,-1)" />
      <path
         style="fill:none;stroke:#0085ca;stroke-width:5.29167;stroke-linecap:butt;stroke-linejoin:miter;stroke-miterlimit:4;stroke-dasharray:none;stroke-opacity:1"
         d="m 769.04297,1329.1911 -19.47375,-0.1054 -13.28802,27.8755"
         id="path85797" />
      <circle
         style="fill:none;fill-opacity:0.999;stroke:#0085ca;stroke-width:5.29167;stroke-miterlimit:4;stroke-dasharray:none;stroke-opacity:1"
         id="circle85799"
         cx="734.24854"
         cy="1361.4116"
         r="5.9026484" />
      <path
         style="fill:none;stroke:#0085ca;stroke-width:5.29167;stroke-linecap:butt;stroke-linejoin:miter;stroke-miterlimit:4;stroke-dasharray:none;stroke-opacity:1"
         d="m 769.04297,1186.155 -19.47375,0.1055 -13.28802,-27.8755"
         id="path85803" />
      <circle
         style="fill:none;fill-opacity:0.999;stroke:#0085ca;stroke-width:5.29167;stroke-miterlimit:4;stroke-dasharray:none;stroke-opacity:1"
         id="circle85805"
         cx="734.24854"
         cy="-1153.9346"
         r="5.9026484"
         transform="scale(1,-1)" />
    </g>
  </g>
</svg>
