<?xml version="1.0" encoding="UTF-8" standalone="no"?>
<!-- Created with Inkscape (http://www.inkscape.org/) -->

<svg
   width="79.375mm"
   height="91.654358mm"
   viewBox="0 0 79.374999 91.654356"
   version="1.1"
   id="svg1361"
   xmlns="http://www.w3.org/2000/svg"
   xmlns:svg="http://www.w3.org/2000/svg">
  <defs
     id="defs1358" />
  <g
     id="layer1"
     transform="translate(311.63502,-53.408583)">
    <g
       id="g101522"
       transform="matrix(0.17712907,0,0,0.17712907,-423.23239,-19.402594)">
      <path
         style="opacity:1;fill:#000000;fill-opacity:1;stroke:none;stroke-width:66.5911;stroke-miterlimit:4;stroke-dasharray:none;stroke-opacity:1"
         id="path65280"
         transform="matrix(0.21852886,0,0,0.21852886,538.02928,551.30365)"
         d="m 2437.4621,1114.4069 -991.1328,572.2308 -991.13273,-572.2308 0,-1144.461531 991.13283,-572.230769 991.1327,572.230778 z" />
      <path
         style="fill:none;stroke:#0085ca;stroke-width:5.29167;stroke-linecap:butt;stroke-linejoin:miter;stroke-miterlimit:4;stroke-dasharray:none;stroke-opacity:1"
         d="m 767.07522,617.32279 -19.47375,0.10549 -13.28802,-27.87552"
         id="path85972" />
      <circle
         style="fill:none;fill-opacity:0.999;stroke:#0085ca;stroke-width:5.29167;stroke-miterlimit:4;stroke-dasharray:none;stroke-opacity:1"
         id="circle85974"
         cx="732.28082"
         cy="-585.10236"
         r="5.9026484"
         transform="scale(1,-1)" />
      <path
         style="fill:none;stroke:#0085ca;stroke-width:5.29167;stroke-linecap:butt;stroke-linejoin:miter;stroke-miterlimit:4;stroke-dasharray:none;stroke-opacity:1"
         d="m 753.79848,669.7566 h -23.3938 l -9.34425,12.98816 -22.03704,-17.39131"
         id="path85966" />
      <circle
         style="fill:none;fill-opacity:0.999;stroke:#0085ca;stroke-width:5.29167;stroke-miterlimit:4;stroke-dasharray:none;stroke-opacity:1"
         id="circle85968"
         cx="695.42511"
         cy="-661.44836"
         r="5.9026484"
         transform="scale(1,-1)" />
      <path
         style="fill:none;stroke:#0085ca;stroke-width:5.29167;stroke-linecap:butt;stroke-linejoin:miter;stroke-miterlimit:4;stroke-dasharray:none;stroke-opacity:1"
         d="m 768.13639,724.00754 -19.47375,-0.10549 -13.28801,27.87552"
         id="path85978" />
      <circle
         style="fill:none;fill-opacity:0.999;stroke:#0085ca;stroke-width:5.29167;stroke-miterlimit:4;stroke-dasharray:none;stroke-opacity:1"
         id="circle85980"
         cx="733.34198"
         cy="756.22797"
         r="5.9026484" />
      <path
         style="fill:none;stroke:#0085ca;stroke-width:5.29167;stroke-linecap:butt;stroke-linejoin:miter;stroke-miterlimit:4;stroke-dasharray:none;stroke-opacity:1"
         d="m 955.51079,669.86179 h 23.3938 l 9.34425,-12.98816 22.03706,17.39131"
         id="path90092" />
      <circle
         style="fill:none;fill-opacity:0.999;stroke:#0085ca;stroke-width:5.29167;stroke-miterlimit:4;stroke-dasharray:none;stroke-opacity:1"
         id="circle90094"
         cx="-1013.8842"
         cy="678.1701"
         r="5.9026484"
         transform="scale(-1,1)" />
      <path
         style="fill:none;stroke:#0085ca;stroke-width:5.29167;stroke-linecap:butt;stroke-linejoin:miter;stroke-miterlimit:4;stroke-dasharray:none;stroke-opacity:1"
         d="m 941.56076,615.64382 19.47375,0.10549 13.28802,-27.87552"
         id="path90098" />
      <circle
         style="fill:none;fill-opacity:0.999;stroke:#0085ca;stroke-width:5.29167;stroke-miterlimit:4;stroke-dasharray:none;stroke-opacity:1"
         id="circle90100"
         cx="-976.35516"
         cy="-583.4234"
         r="5.9026484"
         transform="scale(-1)" />
      <path
         style="fill:none;stroke:#0085ca;stroke-width:5.29167;stroke-linecap:butt;stroke-linejoin:miter;stroke-miterlimit:4;stroke-dasharray:none;stroke-opacity:1"
         d="m 942.62192,722.32858 19.47375,-0.10549 13.28802,27.87552"
         id="path90086" />
      <circle
         style="fill:none;fill-opacity:0.999;stroke:#0085ca;stroke-width:5.29167;stroke-miterlimit:4;stroke-dasharray:none;stroke-opacity:1"
         id="circle90088"
         cx="-977.41638"
         cy="754.54895"
         r="5.9026484"
         transform="scale(-1,1)" />
      <path
         style="fill:none;stroke:#0085ca;stroke-width:6.04003;stroke-linecap:butt;stroke-linejoin:miter;stroke-miterlimit:4;stroke-dasharray:none;stroke-opacity:1"
         d="M 854.09397,566.97138 V 772.59799"
         id="path85567" />
      <path
         style="fill:none;stroke:#0085ca;stroke-width:6.04003;stroke-linecap:butt;stroke-linejoin:miter;stroke-miterlimit:4;stroke-dasharray:none;stroke-opacity:1"
         d="M 781.394,742.4847 H 926.79404"
         id="path85569" />
      <path
         style="fill:#0085ca;fill-opacity:1;stroke:#0085ca;stroke-width:6.04003;stroke-linecap:butt;stroke-linejoin:miter;stroke-miterlimit:4;stroke-dasharray:none;stroke-opacity:1"
         d="M 751.27873,669.78468 H 956.90729"
         id="path85571" />
      <path
         style="fill:none;stroke:#0085ca;stroke-width:6.04003;stroke-linecap:butt;stroke-linejoin:miter;stroke-miterlimit:4;stroke-dasharray:none;stroke-opacity:1"
         d="M 781.394,597.08474 H 926.79395"
         id="path85573" />
      <path
         style="fill:none;stroke:#0085ca;stroke-width:5.29167;stroke-miterlimit:4;stroke-dasharray:none;stroke-opacity:1"
         id="path85575"
         d="m 854.09399,772.59811 a 102.81526,102.81332 0 0 1 -89.04062,-51.40666 102.81526,102.81332 0 0 1 0,-102.81332 102.81526,102.81332 0 0 1 89.04062,-51.40666" />
      <path
         style="fill:none;stroke:#0085ca;stroke-width:5.29167;stroke-miterlimit:4;stroke-dasharray:none;stroke-opacity:1"
         id="path85577"
         d="m 854.09399,566.97147 a 51.4086,102.81332 0 0 1 51.4086,102.81332 51.4086,102.81332 0 0 1 -51.4086,102.81332" />
      <path
         style="fill:none;stroke:#0085ca;stroke-width:5.29167;stroke-miterlimit:4;stroke-dasharray:none;stroke-opacity:1"
         id="path85579"
         d="m 854.09399,772.59811 a 51.4086,102.81332 0 0 1 -44.52115,-51.40666 51.4086,102.81332 0 0 1 0,-102.81332 51.4086,102.81332 0 0 1 44.52115,-51.40666" />
      <circle
         style="fill:none;stroke:#0085ca;stroke-width:6.04003;stroke-miterlimit:4;stroke-dasharray:none;stroke-opacity:1"
         id="circle85581"
         cx="854.09399"
         cy="669.78479"
         r="102.81332" />
    </g>
  </g>
</svg>
